
<svg width="730" height="340" viewBox="0 0 730 340" fill="none" xmlns="http://www.w3.org/2000/svg">
<g filter="url(#filter0_d_264_3845)">
<path d="M446.015 268.937L460.806 285.812C462.99 288.25 464.004 290.562 463.848 292.75C463.692 294.937 462.569 296.969 460.478 298.844C458.418 300.719 456.125 301.5 453.597 301.187C451.101 300.875 448.823 299.437 446.764 296.875L428.884 276.953V292.562C428.884 298 425.795 300.719 419.616 300.719H410.349V237.437H428.884V261.016L446.764 241.187C448.854 238.594 451.132 237.141 453.597 236.828C456.094 236.516 458.372 237.297 460.431 239.172C462.522 241.016 463.645 243.047 463.801 245.266C463.957 247.484 462.959 249.781 460.806 252.156L446.015 268.937Z" fill="white"/>
<path d="M385.643 300.906C379.652 300.906 373.833 299.953 368.185 298.047C362.537 296.141 359.713 292.969 359.713 288.531C359.713 284.094 360.821 280.938 363.036 279.062C372.834 283.438 379.855 285.469 384.099 285.156C388.374 284.844 390.511 283.75 390.511 281.875C390.511 280.031 389.372 278.578 387.094 277.516C384.816 276.422 381.634 275.203 377.546 273.859C373.489 272.516 370.946 271.344 369.916 270.344C365.173 267.188 362.88 262.516 363.036 256.328C363.192 250.109 365.251 245.125 369.214 241.375C373.084 237.688 378.045 235.766 384.099 235.609C390.152 235.453 397.844 237.578 407.174 241.984C405.583 251.328 402.431 255.375 397.719 254.125C385.3 249.688 379.246 249.547 379.559 253.703C379.559 255.359 380.666 256.797 382.882 258.016C385.128 259.203 388.28 260.516 392.337 261.953C396.393 263.359 398.967 264.438 400.06 265.188C404.553 268.75 406.8 273.75 406.8 280.188C406.8 286.594 404.74 291.672 400.621 295.422C396.658 299.078 391.666 300.906 385.643 300.906Z" fill="white"/>
<path d="M331.45 274.562L327.425 263.594L323.399 274.562H331.45ZM317.876 289.562L316.098 294.344C314.506 298.594 311.885 300.719 308.234 300.719C304.615 300.719 302.009 299.609 300.418 297.391C298.857 295.141 298.077 293.125 298.077 291.344C298.077 289.562 298.467 287.812 299.248 286.094L321.387 237.438H327.378C331.372 237.438 334.321 239.562 336.224 243.812L355.602 286.094C356.413 287.844 356.819 289.609 356.819 291.391C356.819 293.172 356.054 295.172 354.525 297.391C352.996 299.609 350.375 300.719 346.662 300.719C342.98 300.719 340.343 298.594 338.752 294.344L336.973 289.562H317.876Z" fill="white"/>
<path d="M289.146 252.344V292.656C289.146 298.094 286.056 300.812 279.878 300.812H270.61V252.344H261.249C256.257 252.344 253.76 249.859 253.76 244.891V237.438H298.6C303.593 237.438 306.089 239.922 306.089 244.891C306.089 249.859 303.593 252.344 298.6 252.344H289.146Z" fill="white"/>
<path d="M627.028 228.719H595.293V165.438H634.236V172.891C634.236 177.859 631.833 180.344 627.028 180.344H613.829V189.438H632.364V196.938C632.364 201.938 629.961 204.438 625.156 204.438H613.829V213.812H634.236V221.266C634.236 226.234 631.833 228.719 627.028 228.719Z" fill="white"/>
<path d="M567.031 180.25H548.496C544.501 180.25 542.504 177.781 542.504 172.844V165.438H584.817C589.435 165.438 591.744 167.938 591.744 172.938C591.744 177.125 590.527 180.594 588.093 183.344L567.592 213.812H591.463V221.266C591.463 226.234 589.498 228.719 585.566 228.719H542.224V221.125C542.224 216.875 543.441 213.406 545.874 210.719L567.031 180.25Z" fill="white"/>
<path d="M538.674 220.562C538.674 226 535.585 228.719 529.407 228.719H520.139V173.594C520.139 168.156 523.228 165.438 529.407 165.438H538.674V220.562Z" fill="white"/>
<path d="M484.996 184.938L498.008 169.281C500.13 166.719 503.001 165.438 506.62 165.438H515.888V220.562C515.888 226 512.799 228.719 506.62 228.719C500.442 228.719 497.353 226 497.353 220.562V194.688L484.996 209.219L472.639 194.781V220.562C472.639 226 469.55 228.719 463.372 228.719H454.104V165.438H463.372C466.929 165.469 469.77 166.75 471.891 169.281L484.996 184.938Z" fill="white"/>
<path d="M449.853 220.562C449.853 226 446.764 228.719 440.585 228.719H431.318V173.594C431.318 168.156 434.407 165.438 440.585 165.438H449.853V220.562Z" fill="white"/>
<path d="M410.825 180.344V220.656C410.825 226.094 407.736 228.812 401.557 228.812H392.29V180.344H382.929C377.936 180.344 375.44 177.859 375.44 172.891V165.438H420.28C425.272 165.438 427.769 167.922 427.769 172.891C427.769 177.859 425.272 180.344 420.28 180.344H410.825Z" fill="white"/>
<path d="M352.232 207.625H342.777V220.562C342.777 226 339.688 228.719 333.51 228.719H324.242V165.625H354.479C359.69 165.625 364.043 167.688 367.537 171.812C371.064 175.906 372.749 180.797 372.593 186.484C372.468 192.141 370.533 197.078 366.789 201.297C363.044 205.516 358.192 207.625 352.232 207.625ZM348.113 178.188H342.777V192.625H348.113C353.355 192.625 355.976 190.219 355.976 185.406C355.976 180.594 353.355 178.188 348.113 178.188Z" fill="white"/>
<path d="M320.693 196.469C320.693 206.25 317.526 214.172 311.191 220.234C304.857 226.266 296.837 229.281 287.133 229.281C277.428 229.281 269.44 226.266 263.168 220.234C256.896 214.172 253.76 206.25 253.76 196.469C253.76 186.688 256.881 178.766 263.121 172.703C269.362 166.609 277.397 163.562 287.227 163.562C297.087 163.562 305.122 166.609 311.332 172.703C317.572 178.766 320.693 186.688 320.693 196.469ZM298.507 184.703C295.698 181.609 291.954 180.062 287.273 180.062C282.593 180.062 278.833 181.625 275.993 184.75C273.154 187.844 271.734 191.766 271.734 196.516C271.734 201.234 273.154 205.125 275.993 208.188C278.833 211.25 282.577 212.781 287.227 212.781C291.907 212.781 295.652 211.234 298.46 208.141C301.3 205.047 302.719 201.141 302.719 196.422C302.719 191.703 301.315 187.797 298.507 184.703Z" fill="white"/>
<path d="M670.893 156.719H639.159V93.4375H678.101V100.891C678.101 105.859 675.699 108.344 670.893 108.344H657.694V117.438H676.229V124.938C676.229 129.938 673.826 132.438 669.021 132.438H657.694V141.812H678.101V149.266C678.101 154.234 675.699 156.719 670.893 156.719Z" fill="white"/>
<path d="M610.896 108.25H592.361C588.367 108.25 586.37 105.781 586.37 100.844V93.4375H628.682C633.3 93.4375 635.61 95.9375 635.61 100.938C635.61 105.125 634.393 108.594 631.959 111.344L611.458 141.812H635.329V149.266C635.329 154.234 633.363 156.719 629.431 156.719H586.089V149.125C586.089 144.875 587.306 141.406 589.74 138.719L610.896 108.25Z" fill="white"/>
<path d="M582.54 148.562C582.54 154 579.451 156.719 573.272 156.719H564.005V101.594C564.005 96.1562 567.094 93.4375 573.272 93.4375H582.54V148.562Z" fill="white"/>
<path d="M541.218 121.656V101.594C541.218 96.1564 544.307 93.4376 550.486 93.4376H559.753V148.563C559.753 154 556.664 156.719 550.486 156.719C547.053 156.719 544.339 155.531 542.342 153.156L521.56 128.406V148.563C521.56 154 518.471 156.719 512.292 156.719H503.025V93.4845L512.292 93.4376C516.255 93.4064 519.095 94.6876 520.811 97.2814L541.218 121.656Z" fill="white"/>
<path d="M474.06 130.562L470.034 119.594L466.009 130.562H474.06ZM460.486 145.562L458.707 150.344C457.116 154.594 454.495 156.719 450.844 156.719C447.224 156.719 444.619 155.609 443.027 153.391C441.467 151.141 440.688 149.125 440.688 147.344C440.688 145.562 441.077 143.812 441.857 142.094L463.996 93.4375H469.988C473.982 93.4375 476.931 95.5625 478.835 99.8125L498.212 142.094C499.023 143.844 499.429 145.609 499.429 147.391C499.429 149.172 498.664 151.172 497.135 153.391C495.606 155.609 492.985 156.719 489.272 156.719C485.59 156.719 482.953 154.594 481.361 150.344L479.583 145.562H460.486Z" fill="white"/>
<path d="M407.416 117.906H437.091V143.594C437.091 147.469 435.032 150.719 430.913 153.344C426.794 155.969 420.038 157.281 410.646 157.281C401.253 157.281 393.421 154.266 387.149 148.234C380.877 142.172 377.741 134.25 377.741 124.469C377.741 114.688 380.862 106.766 387.102 100.703C393.343 94.6094 400.832 91.5625 409.569 91.5625C418.338 91.5625 425 92.9375 429.555 95.6875C434.142 98.4375 436.467 101.016 436.529 103.422C436.592 105.828 435.796 107.984 434.142 109.891C432.52 111.766 430.913 112.703 429.321 112.703C427.761 112.703 425.483 111.953 422.488 110.453C419.523 108.922 415.529 108.125 410.505 108.062C405.481 108 401.753 109.547 399.319 112.703C396.916 115.828 395.715 119.766 395.715 124.516C395.715 129.234 397.056 133.125 399.74 136.188C402.424 139.25 405.981 140.75 410.412 140.688C414.843 140.625 417.62 139.969 418.743 138.719V133.656H415.841C410.225 133.656 407.416 131.031 407.416 125.781V117.906Z" fill="white"/>
<path d="M363.52 129.812L371.945 141.344C374.223 144.062 375.315 146.531 375.222 148.75C375.128 150.938 374.005 152.906 371.852 154.656C369.73 156.406 367.483 157.234 365.112 157.141C362.74 157.078 360.322 155.625 357.857 152.781L343.206 132.719V148.562C343.206 154 340.117 156.719 333.939 156.719H324.671V93.4375H333.939H354.908C360.088 93.4375 364.394 95.4375 367.826 99.4375C371.259 103.406 372.975 107.672 372.975 112.234C372.975 120.391 369.823 126.25 363.52 129.812ZM343.206 106.188V120.625H348.542C353.785 120.625 356.406 118.219 356.406 113.406C356.406 108.594 353.785 106.188 348.542 106.188H343.206Z" fill="white"/>
<path d="M320.693 124.469C320.693 134.25 317.526 142.172 311.191 148.234C304.857 154.266 296.837 157.281 287.133 157.281C277.428 157.281 269.44 154.266 263.168 148.234C256.896 142.172 253.76 134.25 253.76 124.469C253.76 114.688 256.881 106.766 263.121 100.703C269.362 94.6094 277.397 91.5625 287.227 91.5625C297.087 91.5625 305.122 94.6094 311.332 100.703C317.572 106.766 320.693 114.688 320.693 124.469ZM298.507 112.703C295.698 109.609 291.954 108.062 287.273 108.062C282.593 108.062 278.833 109.625 275.993 112.75C273.154 115.844 271.734 119.766 271.734 124.516C271.734 129.234 273.154 133.125 275.993 136.188C278.833 139.25 282.577 140.781 287.227 140.781C291.907 140.781 295.652 139.234 298.46 136.141C301.3 133.047 302.719 129.141 302.719 124.422C302.719 119.703 301.315 115.797 298.507 112.703Z" fill="white"/>
<path d="M509.008 84.9061C503.016 84.9061 497.197 83.953 491.549 82.0468C485.901 80.1405 483.077 76.9687 483.077 72.5311C483.077 68.0937 484.185 64.9375 486.4 63.0625C496.198 67.4375 503.219 69.4687 507.463 69.1561C511.738 68.8437 513.875 67.75 513.875 65.875C513.875 64.0312 512.736 62.578 510.459 61.5155C508.181 60.4218 504.998 59.2031 500.91 57.8594C496.854 56.5156 494.31 55.3438 493.281 54.3438C488.538 51.1875 486.244 46.5155 486.4 40.328C486.556 34.1093 488.616 29.125 492.579 25.3749C496.448 21.6874 501.409 19.7655 507.463 19.6093C513.517 19.453 521.208 21.578 530.538 25.9843C528.947 35.3281 525.795 39.375 521.083 38.125C508.664 33.6875 502.611 33.5468 502.923 37.703C502.923 39.3593 504.031 40.7968 506.246 42.0155C508.493 43.203 511.644 44.5155 515.701 45.953C519.757 47.3593 522.332 48.4375 523.424 49.1875C527.917 52.75 530.164 57.75 530.164 64.1875C530.164 70.5938 528.104 75.6718 523.985 79.4218C520.023 83.078 515.03 84.9061 509.008 84.9061Z" fill="white"/>
<path d="M479.529 67.5625C479.529 73.5312 476.986 77.9688 471.9 80.875C466.845 83.75 461.087 85.1875 454.628 85.1875C448.169 85.1875 442.396 83.75 437.31 80.875C432.255 77.9688 429.727 73.5312 429.727 67.5625V21.4375H438.995C445.173 21.4375 448.263 24.1562 448.263 29.5938V64.8438C448.263 68.4062 450.384 70.1875 454.628 70.1875C458.872 70.1875 460.994 68.4062 460.994 64.8438V21.4375H470.261C476.44 21.4375 479.529 24.1562 479.529 29.5938V67.5625Z" fill="white"/>
<path d="M425.428 73.375C425.428 75.625 423.634 78.1719 420.046 81.0156C416.457 83.8594 409.811 85.2812 400.106 85.2812C390.402 85.2812 382.414 82.2656 376.142 76.2344C369.87 70.1719 366.734 62.25 366.734 52.4688C366.734 42.6875 369.854 34.7656 376.095 28.7031C382.336 22.6094 390.371 19.5625 400.2 19.5625C410.06 19.5625 416.722 20.9844 420.186 23.8281C423.681 26.6719 425.428 29.2344 425.428 31.5156C425.428 33.7656 424.679 35.7812 423.182 37.5625C421.684 39.3125 420.03 40.1875 418.22 40.1875C416.442 40.1875 413.602 39.5 409.702 38.125C405.832 36.75 402.93 36.0625 400.996 36.0625C390.511 36.0625 385.269 41.5156 385.269 52.4219C385.269 63.3281 390.511 68.7812 400.996 68.7812C402.93 68.7812 405.832 68.0938 409.702 66.7188C413.602 65.3438 416.442 64.6562 418.22 64.6562C420.03 64.6562 421.684 65.5469 423.182 67.3281C424.679 69.0781 425.428 71.0938 425.428 73.375Z" fill="white"/>
<path d="M363.887 52.4688C363.887 62.25 360.719 70.1719 354.385 76.2344C348.051 82.2656 340.031 85.2812 330.327 85.2812C320.622 85.2812 312.634 82.2656 306.362 76.2344C300.09 70.1719 296.954 62.25 296.954 52.4688C296.954 42.6875 300.074 34.7656 306.315 28.7031C312.556 22.6094 320.591 19.5625 330.42 19.5625C340.281 19.5625 348.316 22.6094 354.525 28.7031C360.766 34.7656 363.887 42.6875 363.887 52.4688ZM341.701 40.7031C338.892 37.6094 335.148 36.0625 330.467 36.0625C325.787 36.0625 322.026 37.625 319.187 40.75C316.347 43.8438 314.928 47.7656 314.928 52.5156C314.928 57.2344 316.347 61.125 319.187 64.1875C322.026 67.25 325.771 68.7812 330.42 68.7812C335.101 68.7812 338.845 67.2344 341.654 64.1406C344.493 61.0469 345.913 57.1406 345.913 52.4219C345.913 47.7031 344.509 43.7969 341.701 40.7031Z" fill="white"/>
<path d="M272.998 76.5625C272.998 81.9688 269.908 84.6875 263.73 84.7188C257.552 84.75 254.462 82.0312 254.462 76.5625V21.4375H293.405V28.8906C293.405 33.8594 291.002 36.3438 286.197 36.3438H272.998V45.4375H291.533V52.9375C291.533 57.9375 289.13 60.4375 284.325 60.4375H272.998V76.5625Z" fill="white"/>
<mask id="mask0_264_3845" style="mask-type:luminance" maskUnits="userSpaceOnUse" x="0" y="0" width="305" height="332">
<path d="M-1.2713e-06 27.545L273.707 0L304.156 303.455L30.449 331L-1.2713e-06 27.545Z" fill="white"/>
</mask>
<g mask="url(#mask0_264_3845)">
<path d="M102.261 103.575C92.9269 114.745 88.2429 129.003 88.4002 144.37C88.6192 148.572 89.0586 152.758 89.4932 156.944C89.5829 157.823 89.5829 157.823 89.6744 158.72C90.7994 169.627 92.4024 180.328 94.7021 191.03C94.7861 191.423 94.87 191.816 94.9565 192.221C102.966 229.472 116.335 270.094 143.048 296.189C144.28 297.392 144.28 297.392 145.441 298.78C147.706 301.255 150.433 303.003 153.105 304.887C153.854 305.427 153.854 305.427 154.619 305.979C165.349 313.394 177.771 316.433 190.175 315.113C190.786 315.048 191.398 314.983 192.028 314.916C205.644 313.327 217.153 306.386 225.873 294.832C234.535 282.423 239.656 264.511 237.775 248.68C235.953 237.82 230.71 229.974 224.379 221.748C218.311 213.816 213.955 206.491 214.558 195.881C215.103 188.934 217.09 182.645 219.217 176.166C223.205 163.993 226.23 151.523 225.492 138.356C225.468 137.896 225.444 137.436 225.42 136.962C224.341 122.801 218.692 109.041 209.152 99.2905C208.715 98.7882 208.715 98.7882 208.268 98.2757C196.555 84.9511 177.667 79.9871 161.659 79.3536C140.016 78.8555 117.389 86.1685 102.261 103.575Z" fill="white"/>
<path d="M191.62 10.3459C191.142 10.6333 190.664 10.9206 190.171 11.2167C182.575 16.1176 178.222 23.4194 176.253 32.2171C174.285 42.9473 176.511 55.1673 182.493 64.3264C183.516 65.6673 184.577 66.927 185.715 68.1704C185.998 68.4915 186.281 68.8125 186.573 69.1433C190.882 73.6679 196.505 75.6467 202.549 76.5049C210.371 76.3878 217.129 74.1663 222.853 68.6534C230.76 60.2433 233.403 49.6612 233.268 38.2463C232.879 28.5224 230.215 19.6727 223.064 12.7975C214.321 5.4178 201.487 4.37869 191.62 10.3459Z" fill="white"/>
<path d="M134.193 21.9242C129.785 26.7511 127.457 33.0919 127.224 40.0181C127.345 49.3414 129.461 58.5001 135.538 65.4209C139.344 69.1728 144.033 71.076 149.049 71.095C154.757 70.7623 159.672 68.1185 163.451 63.4441C168.942 55.6073 169.979 46.105 168.903 36.3756C167.959 29.9228 165.396 24.0636 160.82 19.7881C151.991 13.2941 142.066 14.7153 134.193 21.9242Z" fill="white"/>
<path d="M86.9673 40.9093C82.6268 44.9368 80.3026 49.7732 79.3687 55.8986C79.3929 56.4581 79.4171 57.0176 79.4421 57.594C79.4573 58.0641 79.4725 58.5342 79.4882 59.0186C79.9616 66.7369 83.2129 73.2262 88.4407 78.4782C93.068 82.819 97.3937 85.9374 103.718 85.846C109.097 85.4082 113.124 83.7798 116.728 79.4194C120.588 74.3939 121.592 69.3808 121.257 62.8385C120.124 54.2455 116.04 46.0472 109.654 40.6027C102.433 35.3165 93.8843 35.1853 86.9673 40.9093Z" fill="white"/>
<path d="M59.9908 80.2159C56.5343 83.1481 54.8818 87.1754 54.3203 91.7742C53.984 96.5434 55.4227 101.59 58.279 105.331C58.8033 105.921 59.3386 106.5 59.8848 107.068C60.1438 107.357 60.4028 107.647 60.6696 107.945C64.0396 111.474 68.6919 113.809 73.4236 114.012C77.7904 113.966 81.0994 112.777 84.3809 109.714C87.0826 106.721 88.3743 102.947 88.493 98.8311C88.253 91.9232 85.2059 86.6741 80.5584 81.9652C74.3492 76.2764 66.867 75.2605 59.9908 80.2159Z" fill="white"/>
</g>
</g>
<defs>
<filter id="filter0_d_264_3845" x="50.2722" y="4.4812" width="631.829" height="316.932" filterUnits="userSpaceOnUse" color-interpolation-filters="sRGB">
<feFlood flood-opacity="0" result="BackgroundImageFix"/>
<feColorMatrix in="SourceAlpha" type="matrix" values="0 0 0 0 0 0 0 0 0 0 0 0 0 0 0 0 0 0 127 0" result="hardAlpha"/>
<feOffset dy="2"/>
<feGaussianBlur stdDeviation="2"/>
<feComposite in2="hardAlpha" operator="out"/>
<feColorMatrix type="matrix" values="0 0 0 0 0 0 0 0 0 0 0 0 0 0 0 0 0 0 0.25 0"/>
<feBlend mode="normal" in2="BackgroundImageFix" result="effect1_dropShadow_264_3845"/>
<feBlend mode="normal" in="SourceGraphic" in2="effect1_dropShadow_264_3845" result="shape"/>
</filter>
</defs>
</svg>
